<?xml version="1.0" encoding="UTF-8"?>
<svg version="1.1" xmlns="http://www.w3.org/2000/svg" width="32" height="32">
<path d="M0 0 C10.56 0 21.12 0 32 0 C32 10.56 32 21.12 32 32 C21.44 32 10.88 32 0 32 C0 21.44 0 10.88 0 0 Z " fill="#1A1812" transform="translate(0,0)"/>
<path d="M0 0 C3.63 0 7.26 0 11 0 C11 5.28 11 10.56 11 16 C7.27063901 16.05400523 3.54206222 16.09367794 -0.1875 16.125 C-1.24259766 16.14175781 -2.29769531 16.15851562 -3.38476562 16.17578125 C-4.91713867 16.18544922 -4.91713867 16.18544922 -6.48046875 16.1953125 C-7.88655396 16.21102295 -7.88655396 16.21102295 -9.32104492 16.22705078 C-12.21630812 15.98166713 -14.37062697 15.20521619 -17 14 C-16.6999825 10.49979578 -16.04266259 9.05095809 -13.75 6.3125 C-11.16437673 4.13822589 -9.19363318 3.00371328 -6 2 C-6 3.32 -6 4.64 -6 6 C-3.69 6 -1.38 6 1 6 C0.67 4.02 0.34 2.04 0 0 Z " fill="#0A0909" transform="translate(21,16)"/>
<path d="M0 0 C0.99 0.33 1.98 0.66 3 1 C3 1.66 3 2.32 3 3 C3.99 3 4.98 3 6 3 C5.67 5.64 5.34 8.28 5 11 C5.99 11.66 6.98 12.32 8 13 C5.03 12.505 5.03 12.505 2 12 C1.814375 11.071875 1.814375 11.071875 1.625 10.125 C1.12802644 7.80879168 1.12802644 7.80879168 -1 6 C-0.625 2.875 -0.625 2.875 0 0 Z " fill="#4E3F33" transform="translate(13,10)"/>
<path d="M0 0 C1.32 0 2.64 0 4 0 C4 1.32 4 2.64 4 4 C5.65 4.33 7.3 4.66 9 5 C9 5.33 9 5.66 9 6 C6.03 6 3.06 6 0 6 C0 4.02 0 2.04 0 0 Z " fill="#7B634D" transform="translate(0,26)"/>
<path d="M0 0 C2.97 0 5.94 0 9 0 C3.85714286 5.57142857 3.85714286 5.57142857 0 6 C0 4.02 0 2.04 0 0 Z " fill="#303030" transform="translate(5,17)"/>
<path d="M0 0 C1.9375 0.6875 1.9375 0.6875 4 2 C4.75 4.625 4.75 4.625 5 7 C1.125 6.125 1.125 6.125 0 5 C-0.04063832 3.33382885 -0.042721 1.66611905 0 0 Z " fill="#0B0804" transform="translate(16,5)"/>
<path d="M0 0 C0.33 0 0.66 0 1 0 C1 4.62 1 9.24 1 14 C0.34 14 -0.32 14 -1 14 C-1.33 11.03 -1.66 8.06 -2 5 C-1.67 5 -1.34 5 -1 5 C-0.67 3.35 -0.34 1.7 0 0 Z " fill="#0B0D07" transform="translate(2,11)"/>
<path d="M0 0 C0.99 0.33 1.98 0.66 3 1 C3.33 2.98 3.66 4.96 4 7 C3.01 7.33 2.02 7.66 1 8 C0.34 7.34 -0.32 6.68 -1 6 C-0.625 2.875 -0.625 2.875 0 0 Z " fill="#776051" transform="translate(13,10)"/>
</svg>
